<?xml version="1.0" encoding="utf-8"?>
<!-- Generator: Adobe Illustrator 22.0.0, SVG Export Plug-In . SVG Version: 6.00 Build 0)  -->
<svg version="1.1" id="Layer_1" xmlns="http://www.w3.org/2000/svg" xmlns:xlink="http://www.w3.org/1999/xlink" x="0px" y="0px"
	 viewBox="0 0 525 525" style="enable-background:new 0 0 525 525;" xml:space="preserve">
<style type="text/css">
	.st0{fill:#FF0800;}
	.st1{fill:#FFFFFF;}
</style>
<path class="st0" d="M489.5,254.5c0,125.4-101.6,227-227,227c-20.9,0-41.1-2.8-60.3-8.1c-15.1-4.1-29.6-9.8-43.2-16.8
	C85.7,419,35.5,342.6,35.5,254.5c0-125.4,101.6-227,227-227S489.5,129.1,489.5,254.5z"/>
<path class="st1" d="M144.5,284.5"/>
<path class="st1" d="M231.3,352.1l-5.7,3c6.6,18.1-4.2,39.3-24.6,50c1,1.6,1.5,3.5,1.5,5.5v59.9c0,1-0.1,1.9-0.4,2.8
	c-15.1-4.1-29.6-9.8-43.2-16.8v-45.9c0-0.5,0-1,0.1-1.5c-10.3-3.5-18.6-10.5-22.4-20.4c-7.7-20,5.9-43.8,30.4-53.3
	c21.2-8.2,43.6-2.9,54.2,11.6l5.7-3c0.7-0.4,1.4-0.5,2.1-0.5c1.6,0,3.2,0.9,4,2.4C234.4,348.2,233.5,351,231.3,352.1z"/>
<polyline class="st1" points="167.9,377.9 238.1,175.2 357.1,260.9 "/>
<polygon class="st1" points="290.2,112 283.5,104.5 273.5,105.8 278.6,97.1 274.2,88.1 284.1,90.1 291.3,83.2 292.4,93.2 301.2,98 
	292,102.1 "/>
<polygon class="st1" points="334.4,120.8 336.8,130.5 346.2,134 337.7,139.3 337.3,149.3 329.6,142.9 319.9,145.6 323.7,136.3 
	318.1,127.9 328.2,128.6 "/>
<polygon class="st1" points="330.8,50.4 330.4,60.4 338.4,66.4 328.8,69.1 325.5,78.6 319.9,70.3 309.9,70.1 316.1,62.3 313.2,52.7 
	322.6,56.2 "/>
<polygon class="st1" points="362.8,73.3 370.3,80 380,77.7 375.9,86.9 381.1,95.5 371.1,94.4 364.5,101.9 362.5,92.1 353.3,88.2 
	362,83.3 "/>
<polygon class="st1" points="393.3,155.1 394.8,164.9 403.9,169.2 395,173.7 393.7,183.5 386.6,176.4 376.7,178.2 381.3,169.4 
	376.5,160.6 386.4,162.3 "/>
<polygon class="st1" points="438.4,140.6 439.1,150.6 447.7,155.7 438.4,159.4 436.2,169.2 429.8,161.5 419.8,162.4 425.1,153.9 
	421.2,144.7 430.9,147.2 "/>
<polygon class="st1" points="379.9,112 385.9,120.1 395.9,119.8 390.1,127.9 393.5,137.4 383.9,134.3 376,140.5 375.9,130.5 
	367.6,124.9 377.1,121.7 "/>
<polygon class="st1" points="184,70.1 188.4,79 198.3,80.5 191.1,87.5 192.8,97.4 184,92.7 175.1,97.4 176.8,87.5 169.6,80.5 
	179.5,79 "/>
<polygon class="st1" points="238.7,50.2 246.2,56.8 256,54.4 252,63.6 257.3,72.2 247.3,71.2 240.8,78.8 238.7,69 229.4,65.2 
	238,60.2 "/>
<polygon class="st1" points="439.5,189.6 448.3,194.5 457.2,190 455.3,199.9 462.4,207 452.4,208.2 447.8,217.1 443.5,208 
	433.6,206.4 441,199.5 "/>
</svg>
